HIERARCHY
ROOT Hip
{
	OFFSET 0.000000 0.000000 0.000000 
	CHANNELS 6 Xposition Yposition Zposition Xrotation Yrotation Zrotation
	JOINT LowerSpine
	{
		OFFSET 0.000000 8.345300 -5.129200 
		CHANNELS 3 Xrotation Yrotation Zrotation
		JOINT MiddleSpine
		{
			OFFSET 10.856900 0.000000 0.000000 
			CHANNELS 3 Xrotation Yrotation Zrotation
			JOINT Chest
			{
				OFFSET 15.298400 0.000000 0.000000 
				CHANNELS 3 Xrotation Yrotation Zrotation
				JOINT Neck
				{
					OFFSET 25.661800 -0.598600 0.000000 
					CHANNELS 3 Xrotation Yrotation Zrotation
					JOINT Head
					{
						OFFSET 8.882900 0.000000 0.000000 
						CHANNELS 3 Xrotation Yrotation Zrotation
						End Site
						{
							OFFSET 19.739901 0.000000 0.000000 
						}
					}
				}
				JOINT RClavicle
				{
					OFFSET 23.687799 0.000000 3.158400 
					CHANNELS 3 Xrotation Yrotation Zrotation
					JOINT RShoulder
					{
						OFFSET -15.594500 -3.948000 0.987000 
						CHANNELS 3 Xrotation Yrotation Zrotation
						JOINT RForearm
						{
							OFFSET -31.337000 0.000000 0.197400 
							CHANNELS 3 Xrotation Yrotation Zrotation
							JOINT RHand
							{
								OFFSET -26.402100 0.000000 0.000000 
								CHANNELS 3 Xrotation Yrotation Zrotation
								End Site
								{
									OFFSET -15.791900 -0.987000 0.000000 
								}
							}
						}
					}
				}
				JOINT LClavicle
				{
					OFFSET 23.687799 0.000000 -3.158400 
					CHANNELS 3 Xrotation Yrotation Zrotation
					JOINT LShoulder
					{
						OFFSET -15.594500 -3.948000 -0.987000 
						CHANNELS 3 Xrotation Yrotation Zrotation
						JOINT LForearm
						{
							OFFSET -31.337000 0.000000 -0.197400 
							CHANNELS 3 Xrotation Yrotation Zrotation
							JOINT LHand
							{
								OFFSET -26.402100 0.000000 0.000000 
								CHANNELS 3 Xrotation Yrotation Zrotation
								End Site
								{
									OFFSET -15.791900 -0.987000 0.000000 
								}
							}
						}
					}
				}
			}
		}
	}
	JOINT RThigh
	{
		OFFSET -8.882900 0.448100 0.000000 
		CHANNELS 3 Xrotation Yrotation Zrotation
		JOINT RShin
		{
			OFFSET 43.131599 0.000000 -0.493500 
			CHANNELS 3 Xrotation Yrotation Zrotation
			JOINT RFoot
			{
				OFFSET 0.000000 -44.725601 -0.404700 
				CHANNELS 3 Xrotation Yrotation Zrotation
				JOINT RToe
				{
					OFFSET 0.000000 -3.933200 12.195300 
					CHANNELS 3 Xrotation Yrotation Zrotation
					End Site
					{
						OFFSET 6.772500 0.000000 0.000000 
					}
				}
			}
		}
	}
	JOINT LThigh
	{
		OFFSET 8.882900 0.448100 0.000000 
		CHANNELS 3 Xrotation Yrotation Zrotation
		JOINT LShin
		{
			OFFSET 43.131599 0.000000 0.493500 
			CHANNELS 3 Xrotation Yrotation Zrotation
			JOINT LFoot
			{
				OFFSET 0.000000 -44.725601 0.404700 
				CHANNELS 3 Xrotation Yrotation Zrotation
				JOINT LToe
				{
					OFFSET 0.000000 -3.933200 -12.195300 
					CHANNELS 3 Xrotation Yrotation Zrotation
					End Site
					{
						OFFSET 6.772500 0.000000 0.000000 
					}
				}
			}
		}
	}
}
MOTION
Frames: 10
Frame Time: 0.016949
11.844344 83.559418 -16.031008 5.828853 8.949777 -0.801147 -89.999992 -90.000000 0.000000 0.098558 -0.161216 0.154580 0.330603 -0.536127 0.516384 0.000000 0.000000 0.000000 0.000000 0.000000 0.000000 89.995193 -0.217192 -87.082077 12.296510 23.225500 74.157303 5.388524 43.767441 -8.131151 0.000000 0.000000 0.000000 -90.001633 -0.032444 -90.436302 -14.576690 -18.854561 75.808167 -7.311203 -52.055649 -9.561804 0.000000 0.000000 0.000000 30.513250 85.810478 -115.880600 89.469620 47.290169 90.181084 0.032102 -0.623113 -0.220949 158.865997 90.000000 0.000000 20.824490 79.944450 -138.221603 -89.300392 -55.300678 90.305168 30.971170 0.436594 -0.022904 180.000198 -90.000000 0.000000 
11.984789 83.788635 -16.255417 6.077051 8.279308 -0.864778 -89.999992 -90.000000 0.000000 0.053960 -0.158948 0.126492 0.182867 -0.528223 0.422344 0.000000 0.000000 0.000000 0.000000 0.000000 0.000000 89.995590 -0.142723 -88.082314 17.323980 19.324829 73.196777 6.831183 50.231529 -9.187944 0.000000 0.000000 0.000000 -90.003128 -0.058235 -90.783310 -11.305450 -8.256012 74.317169 -11.604700 -63.454262 -13.211650 0.000000 0.000000 0.000000 35.381439 85.178543 -125.855698 89.303627 55.163422 90.302727 0.681019 -0.419385 -0.149575 168.287399 90.000000 0.000000 19.854630 79.661774 -137.299194 -89.316673 -54.643120 90.292511 30.708330 1.148989 -0.844887 180.000000 -90.000000 0.000000 
12.091234 84.507050 -16.568226 6.369009 6.884484 -0.790508 -89.999992 -90.000000 0.000000 0.038169 -0.142807 0.085171 0.132022 -0.472962 0.284564 0.000000 0.000000 0.000000 0.000000 0.000000 0.000000 89.996803 -0.085294 -88.853889 21.518801 16.456860 73.242699 8.330182 55.481369 -10.384120 0.000000 0.000000 0.000000 -90.004120 -0.074078 -90.996536 -7.760583 -0.874834 72.887550 -18.606159 -72.379898 -19.720320 0.000000 0.000000 0.000000 36.024590 84.939552 -133.033005 89.023514 63.882999 90.535942 0.377144 -0.239203 -0.084986 176.162598 90.000000 0.000000 21.542770 80.286324 -138.416595 -89.365829 -52.523640 90.255096 29.856791 1.801036 -1.555135 180.000900 -90.000000 0.000000 
12.011879 85.752472 -17.000834 6.696069 4.706271 -0.759965 -89.999992 -90.000000 0.000000 0.043302 -0.120286 0.045635 0.152787 -0.392796 0.152092 0.000000 0.000000 0.000000 0.000000 0.000000 0.000000 89.997993 -0.048351 -89.350288 24.954981 14.218740 72.952393 9.770285 59.468899 -11.599100 0.000000 0.000000 0.000000 -90.004417 -0.078419 -91.054947 -4.603002 2.257179 71.021309 -30.216141 -78.553787 -30.977470 0.000000 0.000000 0.000000 37.726002 85.901169 -142.197601 88.493393 72.595673 91.020798 0.088344 -0.021523 -0.011325 179.482300 90.000000 0.000000 27.179960 82.524727 -142.783707 -89.441612 -48.818279 90.200233 28.073740 1.671387 -1.388082 180.003296 -90.000000 0.000000 
11.580523 87.438980 -17.530741 7.156342 1.955352 -1.035898 -89.999992 -90.000000 0.000000 0.054857 -0.101732 0.019838 0.196668 -0.314441 0.066322 0.000000 0.000000 0.000000 0.000000 0.000000 0.000000 89.998787 -0.027576 -89.629532 27.749260 11.339140 72.301407 11.329930 62.921242 -12.966400 0.000000 0.000000 0.000000 -90.003792 -0.069033 -90.928627 -2.080271 3.312576 68.223160 -54.241840 -82.811462 -54.711140 0.000000 0.000000 0.000000 47.402679 87.927757 -159.924301 87.116226 80.829224 92.356140 0.024018 0.246562 0.075617 180.000000 90.000000 0.000000 40.369362 85.899651 -154.114105 -89.531013 -43.648880 90.140869 25.353081 0.835563 -0.550098 180.004807 -90.000000 0.000000 
10.891468 89.417999 -18.162348 7.882368 -1.051437 -1.547096 -89.999992 -90.000000 0.000000 0.072382 -0.073017 0.007277 0.207102 -0.260366 0.045304 0.000000 0.000000 0.000000 0.000000 0.000000 0.000000 89.999336 -0.014741 -89.802078 30.001680 7.844223 72.198143 13.122510 66.070084 -14.584940 0.000000 0.000000 0.000000 -90.002823 -0.053322 -90.717232 0.264909 3.312634 64.753738 -98.514641 -84.068619 -98.724243 0.000000 0.000000 0.000000 154.570496 89.134270 84.562477 75.207024 88.205093 104.228104 -0.128333 0.489123 0.157246 180.000000 90.000000 0.000000 102.338097 88.532387 146.095703 -89.624031 -37.196892 90.087051 21.658920 0.026308 0.095251 180.003204 -90.000000 0.000000 
10.289013 91.498207 -18.951559 8.841651 -3.825775 -1.944997 -89.999992 -90.000000 0.000000 0.039062 -0.069122 0.027418 0.139435 -0.244583 0.074880 0.000000 0.000000 0.000000 0.000000 0.000000 0.000000 89.999931 -0.001865 -89.975250 31.858120 4.739358 72.532654 14.850330 68.495842 -16.179100 0.000000 0.000000 0.000000 -90.001877 -0.037271 -90.501297 2.874351 2.503951 60.908821 -130.524307 -82.277863 -130.522095 0.000000 0.000000 0.000000 -169.279099 87.058098 40.015209 -84.340851 85.427628 -96.255470 -0.323871 0.704392 0.230523 180.000000 90.000000 0.000000 173.307495 86.622414 77.214706 -89.710457 -30.107981 90.046318 16.673880 -0.686140 0.506387 180.001999 -90.000000 0.000000 
9.911057 93.490433 -19.726866 9.738797 -5.755918 -2.147256 -89.999992 -90.000000 0.000000 -0.007023 -0.080292 0.035250 -0.023736 -0.271727 0.113746 0.000000 0.000000 0.000000 0.000000 0.000000 0.000000 90.000839 0.016410 -90.220970 33.473660 1.995849 72.639847 16.149981 70.021713 -17.394630 0.000000 0.000000 0.000000 -90.001228 -0.025478 -90.342682 5.967274 0.789284 56.993469 -142.380905 -80.396858 -142.246002 0.000000 0.000000 0.000000 -165.350494 85.056641 27.881371 -87.329460 80.513153 -93.291611 -0.364030 0.859999 0.282106 180.000000 90.000000 0.000000 -178.383896 83.845367 70.702133 -89.780563 -23.576241 90.021301 10.850680 -1.701750 0.921731 180.004593 -90.000000 0.000000 
9.677201 95.331535 -20.327074 10.368740 -6.822069 -2.249103 -89.999992 -90.000000 0.000000 -0.080349 -0.100968 0.033600 -0.269216 -0.337900 0.111321 0.000000 0.000000 0.000000 0.000000 0.000000 0.000000 90.002228 0.041836 -90.563026 34.971420 -0.559704 72.603287 16.616800 70.518082 -17.834049 0.000000 0.000000 0.000000 -90.000954 -0.020304 -90.273079 9.417867 -2.176295 53.603310 -144.728607 -79.854607 -144.559006 0.000000 0.000000 0.000000 -164.803406 83.369766 19.574989 -88.077347 77.058662 -92.561188 -0.331861 0.853143 0.277051 180.000000 90.000000 0.000000 -176.907700 81.860588 70.643280 -89.831596 -18.422701 90.008263 5.239084 -2.353148 1.001387 180.006805 -90.000000 0.000000 
9.529446 97.141663 -20.854984 10.813770 -7.401023 -2.268502 -89.999992 -90.000000 0.000000 -0.169160 -0.129615 0.008940 -0.564141 -0.432429 0.028303 0.000000 0.000000 0.000000 0.000000 0.000000 0.000000 90.004150 0.073248 -90.985710 36.365631 -2.465150 72.972260 15.882190 69.725281 -17.143190 0.000000 0.000000 0.000000 -90.001083 -0.022562 -90.303459 13.128480 -6.345191 51.093220 -140.578705 -80.765770 -140.468094 0.000000 0.000000 0.000000 -166.852097 82.020988 14.391460 -88.349701 75.098793 -92.298798 -0.330369 0.646768 0.202100 180.000000 90.000000 0.000000 -177.246002 81.014648 71.780220 -89.865990 -14.793570 90.002136 -0.232460 -1.365702 0.452228 180.004593 -90.000000 0.000000 
